<?xml version="1.0" standalone="no"?>
<!DOCTYPE svg PUBLIC "-//W3C//DTD SVG 20010904//EN"
 "http://www.w3.org/TR/2001/REC-SVG-20010904/DTD/svg10.dtd">
<svg version="1.0" xmlns="http://www.w3.org/2000/svg"
 width="150.000000pt" height="150.000000pt" viewBox="0 0 150.000000 150.000000"
 preserveAspectRatio="xMidYMid meet">
<metadata>
Created by potrace 1.16, written by Peter Selinger 2001-2019
</metadata>
<g transform="translate(0.000000,150.000000) scale(0.100000,-0.100000)"
fill="#000000" stroke="none">
<path d="M670 1448 c-82 -7 -154 -29 -245 -76 -339 -174 -475 -599 -300 -940
89 -175 240 -299 440 -362 99 -30 271 -30 370 0 251 79 416 244 495 495 30 99
30 271 0 370 -79 251 -250 422 -495 493 -81 24 -159 30 -265 20z m-301 -391
c15 -8 33 -35 50 -78 60 -153 149 -280 186 -265 25 9 18 255 -7 283 -25 28
-23 59 5 67 36 10 167 7 188 -4 17 -10 19 -22 19 -140 0 -140 4 -160 29 -160
35 0 127 123 177 236 27 61 48 74 119 74 60 0 95 -15 95 -41 0 -22 -56 -124
-122 -221 -21 -32 -41 -64 -44 -72 -4 -10 23 -46 73 -101 115 -125 137 -176
87 -195 -33 -13 -103 -13 -140 0 -16 6 -45 29 -64 52 -19 22 -61 63 -92 89
-49 41 -61 46 -85 40 -27 -7 -28 -9 -31 -89 -3 -92 -7 -95 -93 -93 -81 1 -184
51 -259 124 -59 57 -153 194 -196 284 -27 58 -64 167 -64 191 0 29 122 44 169
19z"/>
</g>
</svg>
